<svg xmlns="http://www.w3.org/2000/svg" width="45" height="52" viewBox="0 0 45 52" fill="none">
<path d="M25.4577 24.0783L22.3423 42.7793L19.231 24.0741L22.3423 20.9629L25.4577 24.0783Z" fill="white"/>
<path d="M35.1541 17.8662L26.2263 23.0206L23.2555 20.0497L26.2937 17.0115L35.1541 17.8662Z" fill="white"/>
<path d="M21.429 20.0497L18.4776 23.0012L9.55688 17.8509L18.3642 16.9849L21.429 20.0497Z" fill="white"/>
<path d="M25.2525 16.2262L22.3423 19.1365L19.4234 16.2177L22.3423 9.68583L25.2525 16.2262Z" fill="white"/>
<path fill-rule="evenodd" clip-rule="evenodd" d="M26.2263 23.0206L29.2048 18.958L26.2937 17.0115L23.2555 20.0497L26.2263 23.0206Z" fill="white"/>
<path d="M22.3423 19.1365L25.2525 16.2262L22.3423 14.4112V19.1365Z" fill="white"/>
<path d="M19.4234 16.2177L22.3423 19.1365V14.4112L19.4234 16.2177Z" fill="white"/>
<path d="M21.429 20.0497L18.3642 16.9849L15.493 18.9503L21.429 20.0497Z" fill="white"/>
<path d="M18.4776 23.0012L21.429 20.0497L15.493 18.9503L18.4776 23.0012Z" fill="white"/>
<path d="M22.3423 20.9629L19.231 24.0741L22.3423 28.5733L25.4577 24.0783L22.3423 20.9629Z" fill="white"/>
<path d="M5.59215 22.6004L17.822 29.6613V32.89L15.026 34.5043L0 25.829V17.4346L2.79608 15.8203L5.59215 17.4346V22.6004Z" fill="white"/>
<path fill-rule="evenodd" clip-rule="evenodd" d="M44.7372 12.9145V38.7436L22.3686 51.6581L0 38.7436V34.6498H4.09374L22.3686 45.2008L39.1451 35.5149V29.0577L29.6583 34.5349L26.8622 32.9205V29.6919L39.1451 22.6004V16.1431L22.3686 6.45726L5.59215 16.1431L2.79608 14.5288V11.3002L22.3686 0L44.7372 12.9145Z" fill="white"/>
<path d="M2.80908 11.3647L5.81171 12.7853L22.31 3.55143L41.6818 14.7871V24.2792L29.639 31.1239L26.8624 29.7033L39.1635 22.6326V16.1431L22.31 6.55406L5.5857 16.1431L2.80908 14.5288V11.3647Z" fill="white"/>
<path d="M41.7785 27.5078L39.1633 29.0576V35.5148L41.7785 36.6126V27.5078Z" fill="white"/>
<path d="M22.4069 48.0419L0.0324707 34.6431H4.10054L22.4069 45.233L39.1635 35.5149L41.8109 36.6126L22.4069 48.0419Z" fill="white"/>
<path d="M2.87366 24.3438L5.65029 22.6326L17.7899 29.671L15.0133 31.3499L2.87366 24.3438Z" fill="white"/>
<path d="M29.6389 31.1239L26.8623 29.7033V32.932L29.6389 34.514V31.1239Z" fill="white"/>
<path d="M15.0455 34.4817L15.0132 31.3499L17.7898 29.6711L17.8221 32.8674L15.0455 34.4817Z" fill="white"/>
<path d="M5.61793 17.4174L2.84131 18.9843V24.3761L5.61793 22.6326V17.4174Z" fill="white"/>
<path d="M22.2776 42.7793L25.393 24.0783L22.2776 28.5733V42.7793Z" fill="white"/>
<path d="M35.0894 17.8662L26.229 17.0115L29.1401 18.958L35.0894 17.8662Z" fill="white"/>
<path d="M22.2776 9.68583L19.3587 16.2177L22.2776 14.4112V9.68583Z" fill="white"/>
<path d="M9.49219 17.8509L18.4129 23.0012L15.4283 18.9503L9.49219 17.8509Z" fill="white"/>
<path d="M25.393 24.0783L22.2776 42.7793L19.1663 24.0741L22.2776 20.9629L25.393 24.0783Z" fill="white"/>
<path d="M35.0894 17.8662L26.1616 23.0206L23.1908 20.0497L26.229 17.0115L35.0894 17.8662Z" fill="white"/>
<path d="M21.3643 20.0497L18.4129 23.0012L9.49219 17.8509L18.2995 16.9849L21.3643 20.0497Z" fill="white"/>
<path d="M25.1878 16.2262L22.2776 19.1365L19.3587 16.2177L22.2776 9.68583L25.1878 16.2262Z" fill="white"/>
</svg>